<?xml version="1.0" encoding="utf-8"?>
<!-- Generator: Adobe Illustrator 19.2.1, SVG Export Plug-In . SVG Version: 6.00 Build 0)  -->
<svg version="1.1" id="layer" xmlns="http://www.w3.org/2000/svg" xmlns:xlink="http://www.w3.org/1999/xlink" x="0px" y="0px"
	 viewBox="0 0 652 652" style="enable-background:new 0 0 652 652;" xml:space="preserve">
<style type="text/css">
	.st0{fill:#FFFFFF;}
	.st1{fill:#FABE00;}
</style>
<rect x="20.8" y="171.8" width="600" height="300"/>
<polygon class="st0" points="302.2,281.3 316.6,242 310.3,242 296,281.3 "/>
<polygon class="st0" points="317.4,281.3 331.7,242 325.5,242 311.2,281.3 "/>
<polygon class="st0" points="89.5,400.5 105.8,355.9 112,355.9 97.6,395.2 121.7,395.2 119.8,400.5 "/>
<g>
	<path class="st0" d="M142.6,401.4c-4.5,0-7.9-1-10.3-2.9c-2.3-1.9-3.5-4.6-3.5-7.7c0-2,0.4-4.2,1.2-6.5l10.3-28.3h6.2l-10.5,28.9
		c-0.5,1.7-0.8,3.2-0.8,4.5c0.1,4.4,2.7,6.7,8.6,6.8c7.5,0,13.8-4.4,16.8-11.9l10.3-28.3h6.2l-10.6,29
		C163.2,394.4,154.6,401.4,142.6,401.4L142.6,401.4z"/>
	<path class="st0" d="M186.7,374.8h9.1c5.4,0,11.2-1.9,13.1-7.2c0.3-1,0.5-1.8,0.5-2.4c-0.1-1.6-0.8-2.4-2.3-3
		c-1.5-0.6-3.7-0.9-6-0.9h-9.5L186.7,374.8z M179.4,395.2l9.9,0c7.7-0.1,12.3-1.9,14.5-7.9c0.4-1.1,0.6-2,0.6-2.8
		c-0.1-1.9-1-2.8-3.1-3.5c-2.2-0.7-5.4-0.9-9.1-0.9h-7.3L179.4,395.2z M190.7,400.5h-19.5l16.2-44.6h17.6c6,0,10.9,2.8,11,8.1
		c0,1.2-0.2,2.5-0.7,3.8c-1.5,4.2-5.5,7.7-10,9.4c3.3,1.3,5.4,3.7,5.4,7.1c0,1.3-0.2,2.7-0.8,4.1
		C207.8,394.5,201.5,400.5,190.7,400.5L190.7,400.5z"/>
	<path class="st0" d="M354.3,378.3l-1-15.6l-12.3,15.6H354.3z M356.1,400.5l-1.4-17H337l-13.6,17h-6.7l35.8-44.6h6.3l3.8,44.6H356.1
		z"/>
	<polygon class="st0" points="372.4,400.5 386.6,361.3 371.1,361.3 373,355.9 409.9,355.9 407.9,361.3 392.8,361.3 378.5,400.5 	"/>
	<path class="st0" d="M432.8,378.5c-1,2.8-1.6,5.6-1.5,8.1c0.2,5.5,2.7,9.3,10.6,9.5c11.4,0,19.3-9,22.6-18.2c1-2.8,1.6-5.6,1.5-8.1
		c-0.2-5.5-2.7-9.3-10.6-9.5h0C444,360.4,436.1,369.4,432.8,378.5 M456.7,355c5.2,0,9.1,1.2,11.9,3.6c2.8,2.4,4.1,5.8,4.2,9.9
		c0,3-0.6,6.4-1.9,10c-4.9,13.6-16.1,22.9-30.2,22.9h0c-5.1,0-9.1-1.2-11.9-3.6c-2.8-2.4-4.1-5.8-4.2-9.9c0-3,0.6-6.4,1.9-10
		C431.4,364.3,442.6,355,456.7,355"/>
	<polygon class="st0" points="502.6,400.5 490.7,365.1 477.8,400.5 471.6,400.5 487.8,355.9 493.9,355.9 506.2,392 519.3,355.9 
		525.5,355.9 509.3,400.5 	"/>
	<path class="st0" d="M243.9,400.5l-10-25.7h4.6c6.1,0,13.2-0.4,15.6-7.1c0.4-1.1,0.6-2,0.5-2.7c-0.1-1.8-0.9-2.5-2.5-3.1
		c-1.6-0.6-3.8-0.7-5.7-0.7c-0.7,0-11,0-11,0l-14.3,39.3h-6.2l16.2-44.6h16.3c4.2,0,7.8,0.2,11,2.4c1.9,1.2,2.9,3.2,2.9,5.5
		c0,1.4-0.3,2.9-0.9,4.5c-1.9,5-7.6,9.2-13.2,10.1c-2.6,0.4-4.2,0.5-5.2,0.6l8.9,21.5H243.9z"/>
	<path class="st0" d="M283.4,397.7c-2.7-2.4-3.9-5.8-4-9.5c0-3.2,0.7-6.7,2.1-10.3c4.6-12,15.5-22.9,31.4-22.9
		c4.5,0,8.1,0.9,11.5,2.5l0.6,0.3l-1.9,5.2l-0.9-0.4c-3-1.5-5.2-2.2-10.7-2.2c-12.5,0-20.1,9.6-23.4,18.2c-1.1,2.9-1.8,5.9-1.8,8.5
		c0.2,5.1,2.5,8.7,10.9,8.9c4.8,0,9.3-0.7,13.4-2.5l1.9-0.8l-2.4,6.9l-0.4,0.1c-4.6,1.2-9.5,1.8-13.9,1.8
		C290.2,401.4,286.2,400.1,283.4,397.7"/>
	<polygon class="st0" points="275.8,355.9 259.4,400.5 265.6,400.5 282,355.9 	"/>
	<polygon class="st0" points="418.7,355.9 402.4,400.5 408.6,400.5 424.9,355.9 	"/>
	<polygon class="st1" points="210.2,285.8 230.7,285.8 212.9,334.5 247.2,334.5 242.9,346.4 188.1,346.4 	"/>
	<polygon class="st1" points="424,285.8 480.6,285.8 476.3,297.4 439.8,297.4 435.2,310.1 469.7,310.1 465.5,321.7 431,321.7 
		426.3,334.6 463.6,334.6 459.3,346.4 402,346.4 	"/>
	<path class="st1" d="M386.1,303.6c-0.9,2.6-3.3,4.8-6,5.9c-2,0.8-4.1,0.8-7.3,0.8h-11.1l4.9-13.4h12.6c2.1,0,4.3,0,6,1.4
		C386.7,299.6,386.7,301.8,386.1,303.6 M378.4,328.3c-2.6,7.1-10.6,7.1-12.9,7.1h-12.8l5.2-14.3h12.2C372.8,321,381,321,378.4,328.3
		 M405.1,290.8c-4.8-4.9-14.2-4.9-23.4-4.9H351l-22.1,60.6h33.8c6.5,0,13.9,0,20.5-2.5c9.2-3.5,13.4-9.1,15.1-13.8
		c4.5-12.4-7.7-14.4-12-15l0.1-0.2c3.9-0.8,16.6-3,20.5-13.8C408.8,295.8,406.8,292.5,405.1,290.8"/>
	<path class="st1" d="M290.1,285.8l-13.3,36.4c-1.2,3.3-2.1,6.7-1,9.3c1.5,3.4,5.7,5,10.7,5c12.9,0,17.8-8.7,20.1-14.8l13-35.8h19.9
		l-12.9,35.5c-2.5,6.8-6.3,14.2-12.5,18.7c-9.8,7.3-23.4,8.7-32.7,8.7c-34.7,0-28.3-18-24.6-28l12.8-34.9H290.1z"/>
	<polygon class="st1" points="131.3,285.8 151.8,285.8 129.7,346.4 109.3,346.4 	"/>
	<polygon class="st1" points="147.4,312.5 180.1,285.8 201.9,285.8 169.1,312.5 180.7,346.4 158.9,346.4 	"/>
	<path class="st1" d="M546.7,291c-5.1-5.2-14.7-5.2-24.3-5.2h-31.6l-22.1,60.6h19.9l17.8-49.6h13.3c2.2,0,4.5,0.1,6.3,1.6
		c1.6,1.4,1.6,4.2,0.9,6.1c-1,2.7-3.4,5-6.3,6.2c-2.1,0.8-4.3,0.8-7.7,0.8h-5.7l4,34.9h18.5l-3.5-30c4.1-0.8,18-3.2,22.1-14.4
		C550.4,296.3,548.4,292.9,546.7,291"/>
</g>
</svg>
